<?xml version="1.0" encoding="UTF-8"?>
<svg id="Layer_2" xmlns="http://www.w3.org/2000/svg" width="707.65006" height="623.92525" viewBox="0 0 707.65006 623.92525">
  <g id="Axe">
    <g>
      <rect x="477.58977" y="40.4804" width="85.33333" height="126.37682" rx="28.98972" ry="28.98972" transform="translate(225.6845 -337.51296) rotate(45)" fill="#4055a4"/>
      <rect x="172.43856" y="130.30017" width="85.33333" height="557.0397" rx="28.98972" ry="28.98972" transform="translate(352.08227 -32.36175) rotate(45)" fill="#4055a4"/>
      <path d="M698.52016,146.00428l.1421-.1421c-139.81089,3.50156-143.67399-10.91481-188.80798-55.22068L419.21281.00002l-135.57687,135.57688,99.93778,99.93779.1678-.1678c30.21136,35.27318,44.45866,49.51767,51.4411,173.99494,34.37872,26.59577,116.03261-6.66688,186.35163-76.98591,70.3189-70.31891,103.58156-151.97281,76.98591-186.35165Z" fill="#779aff"/>
      <path d="M577.08982,282.57812c46.02905-46.02905,76.177-96.91284,84.05591-136.21716-103.43774-.13104-110.60425-15.77881-151.2915-55.71948L419.21287,0l-132.91028,132.91022,52.82666,52.82666.16785-.16779c8.3855,9.79047,15.53931,17.96295,21.65112,27.32013l22.62549,22.62549.16797-.16785c26.48047,30.91736,40.6958,45.685,48.50488,132.68201,40.28369-4.84607,95.36865-35.97614,144.84326-85.45074Z" fill="#68e2ff"/>
    </g>
  </g>
</svg>