<?xml version="1.0" encoding="UTF-8"?>
<svg id="Layer_2" xmlns="http://www.w3.org/2000/svg" width="636.65723" height="638.44702" viewBox="0 0 636.65723 638.44702">
  <g id="Trophy">
    <g>
      <path d="M96.25459,570.37037h444.14815c7.37931,0,13.37037,5.99106,13.37037,13.37037v54.70628H82.88422v-54.70628c0-7.37931,5.99106-13.37037,13.37037-13.37037Z" fill="#f9a61a"/>
      <path d="M351.77313,405.77778h-66.88892s24.11108,73.33325-21.22217,150.6665h109.33325c-45.33325-77.33325-21.22217-150.6665-21.22217-150.6665Z" fill="#e87624"/>
      <path d="M167.92126,522.66667h300.81481c6.70475,0,12.14815,5.4434,12.14815,12.14815v38.22222H155.77311v-38.22222c0-6.70475,5.4434-12.14815,12.14815-12.14815Z" fill="#f9a61a"/>
      <path d="M558.77734,268.05447h-95.72168c-15.1875,0-27.5-12.3125-27.5-27.5s12.3125-27.5,27.5-27.5h82.89453l35.70703-42.57129v-87.49609h-84.5957c-15.1875,0-27.5-12.3125-27.5-27.5s12.3125-27.5,27.5-27.5h112.0957c15.1875,0,27.5,12.3125,27.5,27.5v125.00195c0,6.46387-2.27637,12.7207-6.42969,17.67188l-50.37988,60.06543c-5.22559,6.23047-12.93945,9.82812-21.07031,9.82812Z" fill="#f9a61a"/>
      <path d="M173.60156,268.05447h-95.72168c-8.13086,0-15.84473-3.59766-21.07031-9.82812L6.42969,198.16092c-4.15332-4.95117-6.42969-11.20801-6.42969-17.67188V55.48709c0-15.1875,12.3125-27.5,27.5-27.5h112.0957c15.1875,0,27.5,12.3125,27.5,27.5s-12.3125,27.5-27.5,27.5H55v87.49609l35.70703,42.57129h82.89453c15.1875,0,27.5,12.3125,27.5,27.5s-12.3125,27.5-27.5,27.5Z" fill="#f9a61a"/>
      <path d="M361.77311,428.44444h-86.88889c-86.40188,0-156.44444-169.59812-156.44444-256V0h399.77778v172.44444c0,86.40188-70.04256,256-156.44444,256Z" fill="#ffd53a"/>
    </g>
  </g>
</svg>