<?xml version="1.0" encoding="UTF-8"?>
<svg id="Layer_2" xmlns="http://www.w3.org/2000/svg" width="678.9847" height="693.22701" viewBox="0 0 678.9847 693.22701">
  <g id="Mace">
    <g>
      <rect x="506.01925" y="31.71151" width="155.49625" height="155.49625" rx="17.77778" ry="17.77778" fill="#5c5d7c"/>
      <g>
        <polygon points="496.08178 473.88935 396.77335 281.12026 579.67627 98.21734 678.9847 290.98644 496.08178 473.88935" fill="#696688"/>
        <polygon points="202.91317 182.90292 395.68226 282.21135 578.58518 99.30843 385.81608 0 202.91317 182.90292" fill="#9e8ba5"/>
        <polygon points="304.38241 166.5048 388.09439 204.7281 477.11594 115.70655 393.40396 77.48325 304.38241 166.5048" fill="#5c5d7c"/>
        <polygon points="511.38881 373.5112 473.16551 289.79922 562.18706 200.77767 600.41036 284.48965 511.38881 373.5112" fill="#0b1334"/>
        <polygon points="496.08178 473.88935 396.77335 281.12026 202.91317 182.90292 312.02899 365.86462 496.08178 473.88935" fill="#5c5d7c"/>
      </g>
      <rect x="182.51013" y="283.16133" width="85.33333" height="369.77778" rx="28.98972" ry="28.98972" transform="translate(396.91424 -22.1353) rotate(45)" fill="#5471b5"/>
      <rect y="537.73076" width="155.49625" height="155.49625" rx="17.77778" ry="17.77778" fill="#5c5d7c"/>
    </g>
  </g>
</svg>