<?xml version="1.0" encoding="UTF-8"?>
<svg id="Layer_2" xmlns="http://www.w3.org/2000/svg" width="782.78259" height="566.10858" viewBox="0 0 782.78259 566.10858">
  <g id="Netherite_Chestplate">
    <g>
      <path d="M606.83818,13.28168h-121.92188c.03638.71741.06152,1.43677.06152,2.16016,0,34.06055-40.64941,61.67212-90.79321,61.67212s-90.79333-27.61157-90.79333-61.67212c0-.72339.02502-1.44275.0614-2.16016h-121.92163v470.24292h.03198c-.01013.32397-.03198.64673-.03198.97144,0,45.07324,95.20825,81.61255,212.65332,81.61255s212.65381-36.53931,212.65381-81.61255c0-.32471-.02197-.64746-.03198-.97144h.03198V13.28168Z" fill="#8f75b4"/>
      <path d="M606.83818,377.96039h-213.66895v188.14307c.33887.00073.67578.00513,1.01514.00513,117.44531,0,212.65381-36.53931,212.65381-81.61255,0-.32471-.02197-.64746-.03223-.97144h.03223v-105.56421Z" fill="#5954a3"/>
      <path d="M484.91631,13.28168c.03638.71741.06152,1.43677.06152,2.16016,0,34.06055-40.64941,61.67212-90.79321,61.67212s-90.79333-27.61157-90.79333-61.67212c0-.72339.02502-1.44275.0614-2.16016h-164.18542v363.27246c0,12.32495,7.51062,23.45605,19.00037,27.91577,50.29346,19.52026,137.16528,32.41919,235.91675,32.41919s185.62354-12.89893,235.91699-32.41943c11.48999-4.45947,19.00049-15.59058,19.00049-27.91553V13.28168h-164.18555Z" fill="#3c5eaa"/>
      <path d="M484.91631,13.28168c.03638.71741.06152,1.43677.06152,2.16016,0,34.06055-40.64941,61.67212-90.79321,61.67212-.48816,0-.97363-.00732-1.45996-.01245v359.78223c.00122.00122.00183.00195.00293.00293,99.34375.19287,186.85718-12.74438,237.38452-32.39966,11.48291-4.46704,18.98975-15.59106,18.98975-27.91211V13.28168h-164.18555Z" fill="#25316d"/>
      <path d="M484.96489,14.74469c.00366.23254.01294.46411.01294.69714,0,34.06055-40.64941,61.67212-90.79321,61.67212s-90.79333-27.61157-90.79333-61.67212c0-.23303.00916-.4646.01306-.69714h-133.53247v322.12878c0,9.24097,5.56689,17.59985,14.13208,21.06885,43.82361,17.74902,121.56653,29.55249,210.18042,29.55249s166.35693-11.80347,210.18091-29.55273c8.56519-3.46899,14.13208-11.82764,14.13208-21.0686V14.74469h-133.53247Z" fill="#8f75b4"/>
      <path d="M484.96489,14.74469c.00366.23254.01294.46411.01294.69714,0,34.06055-40.64941,61.67212-90.79321,61.67212-.5376,0-1.07275-.00732-1.60815-.01367v310.39087c.53613.00073,1.0708.00366,1.60791.00366,99.13184,0,184.65771-14.77173,224.31299-36.11377V14.74469h-133.53247Z" fill="#5954a3"/>
      <path d="M692.19122,210.10855h-152.82133V50.53391c0-27.15099,22.01023-49.16122,49.16122-49.16122h194.25148l-25.51346,153.57729c-5.28711,31.82553-32.8162,55.15857-65.07791,55.15857Z" fill="#25316d"/>
      <path d="M537.42943,156.3918h115.70216c23.63687,0,43.96551-16.73517,48.50619-39.9318L724.43453,0h-144.2305c-23.62376,0-42.77461,19.15085-42.77461,42.77461v113.61719Z" fill="#5954a3"/>
      <path d="M249.59539,210.10855H95.16793c-31.54809,0-58.68069-22.3364-64.74113-53.2969L0,1.37269h192.5042c31.5306,0,57.0912,25.5606,57.0912,57.0912v151.64467Z" fill="#3c5eaa"/>
      <path d="M253.71489,156.3918h-115.70216c-23.63687,0-43.96551-16.73517-48.50619-39.9318L66.70979,0h144.2305C234.56405,0,253.71489,19.15085,253.71489,42.77461v113.61719Z" fill="#8f75b4"/>
    </g>
  </g>
</svg>