<?xml version="1.0" encoding="UTF-8"?>
<svg id="Layer_2" data-name="Layer 2" xmlns="http://www.w3.org/2000/svg" width="510" height="753.22222" viewBox="0 0 510 753.22222">
  <g id="Potion">
    <g>
      <circle cx="255" cy="498.22222" r="255" fill="#68e2ff"/>
      <circle cx="255" cy="498.22222" r="203.44444" fill="#c7f7ff"/>
      <rect x="189.33333" y="177.33333" width="132.33333" height="96" fill="#68e2ff"/>
      <rect x="109.33333" y="133.33333" width="291.33333" height="65.33333" rx="31.59348" ry="31.59348" fill="#68e2ff"/>
      <ellipse cx="351.20733" cy="510.60199" rx="99.17811" ry="73.91576" transform="translate(-208.24813 244.01136) rotate(-30)" fill="#7e2a8f"/>
      <path d="M255,531.63073c-60.96929,0-115.41192-27.92218-151.24944-71.67452-13.57312-16.57079-40.55335-8.52078-42.94875,12.76497-.88169,7.83483-1.29972,15.81004-1.2256,23.89784.98579,107.56407,87.85564,193.60345,195.42422,193.60321,107.93425-.00024,195.43172-87.49824,195.43172-195.43242,0-7.44922-.41745-14.80073-1.22994-22.03268-2.39343-21.3037-29.3678-29.38641-42.95199-12.8019-35.83751,43.75291-90.28049,71.6755-151.25024,71.6755Z" fill="#c960a4"/>
      <path d="M295.5,121.33333h-81c-19.23792,0-34.83333-15.59541-34.83333-34.83333l-13.16667-62.33333c0-13.34688,10.81979-24.16667,24.16667-24.16667h130.5c13.34688,0,24.16667,10.81979,24.16667,24.16667l-15,62.33333c0,19.23792-15.59541,34.83333-34.83333,34.83333Z" fill="#cc6b00"/>
    </g>
  </g>
</svg>