<?xml version="1.0" encoding="UTF-8"?>
<svg id="Layer_2" xmlns="http://www.w3.org/2000/svg" width="655.77778" height="655.77778" xmlns:xlink="http://www.w3.org/1999/xlink" viewBox="0 0 655.77778 655.77778">
  <defs>
    <radialGradient id="radial-gradient" cx="327.88889" cy="327.88889" fx="327.88889" fy="327.88889" r="281.58831" gradientUnits="userSpaceOnUse">
      <stop offset="0" stop-color="#0e163f"/>
      <stop offset="1" stop-color="#00936d"/>
    </radialGradient>
  </defs>
  <g id="EnderPearl">
    <g>
      <circle cx="327.88889" cy="327.88889" r="327.88889" fill="#00634d"/>
      <circle cx="327.88889" cy="327.88889" r="302.22222" fill="url(#radial-gradient)"/>
      <circle cx="327.88889" cy="327.88889" r="132.33333" fill="#004032"/>
      <path d="M137.77767,294.99999c0-93.70422,75.9624-169.66663,169.66699-169.66663,6.20166,0,12.32275.34229,18.35254.99084-23.65186-22.11414-55.41846-35.65759-90.35254-35.65759-73.08594,0-132.3335,59.24768-132.3335,132.33337,0,34.93445,13.54346,66.70081,35.65771,90.35266-.64893-6.02954-.99121-12.15076-.99121-18.35266Z" fill="#4affd2"/>
      <path d="M529.35292,347.2415c0,93.70422-75.9624,169.66663-169.66699,169.66663-6.20166,0-12.32275-.34229-18.35254-.99084,23.65186,22.11414,55.41846,35.65759,90.35254,35.65759,73.08594,0,132.3335-59.24768,132.3335-132.33337,0-34.93445-13.54346-66.70081-35.65771-90.35266.64893,6.02954.99121,12.15076.99121,18.35266Z" fill="#4affd2"/>
    </g>
  </g>
</svg>