<?xml version="1.0" encoding="UTF-8"?>
<svg id="Layer_2" xmlns="http://www.w3.org/2000/svg" width="622.9379" height="633.67545" viewBox="0 0 622.9379 633.67545">
  <g id="Sword">
    <g>
      <path d="M25.95366,611.48743h0c-14.27925-14.27925-11.74179-34.02218,1.3689-47.13287l80.58253-87.60079L418.93772,138.63209c13.11069-13.11069,35.31462-12.16339,49.59387,2.11585l24.39592,24.39592c14.27925,14.27925,15.22654,36.48318,2.11585,49.59387l-337.84683,312.29906-85.85456,81.33719c-13.11069,13.11069-31.10907,17.3927-45.38832,3.11345Z" fill="#4055a4"/>
      <polygon points="276.82223 480.20407 155.8284 357.95317 458.39153 20.66323 622.9379 0 613.01222 175.28391 276.82223 480.20407" fill="#68e2ff"/>
      <polygon points="622.9379 0 218.9966 417.35014 276.82223 480.20407 613.01222 175.28391 622.9379 0" fill="#779aff"/>
      <polygon points="533.04368 92.80122 184.38766 390.9122 243.07752 448.97352 533.04368 92.80122" fill="#8cf6ff"/>
      <path d="M257.04015,532.49449c-.05628.01208-.11135.02952-.16763.04195l41.71533,41.71533,35.00248-35.60359-.04031.00785.02408-.02408-107.66348-130.70988-130.86715-107.82075-35.60359,35.00248,41.71516,41.71516c.01243-.05628.02987-.11135.04195-.16763l155.84316,155.84316Z" fill="#4055a4"/>
      <circle cx="73.17547" cy="315.52676" r="45.33333" fill="#4055a4"/>
      <circle cx="43.55556" cy="590.11989" r="43.55556" fill="#779aff"/>
      <circle cx="325.8483" cy="568.19958" r="45.33333" fill="#4055a4"/>
    </g>
  </g>
</svg>