<?xml version="1.0" encoding="UTF-8"?>
<svg id="Layer_2" xmlns="http://www.w3.org/2000/svg" width="687.77771" height="590.29611" viewBox="0 0 687.77771 590.29611">
  <g id="Heart">
    <g>
      <path d="M687.77771,185.62866C687.77771,83.10864,604.66907,0,502.14917,0c-66.94458,0-125.60498,35.44238-158.26025,88.58154C311.23364,35.44238,252.57318,0,185.6286,0,83.10876,0,0,83.10864,0,185.62866c0,53.30615,22.47638,101.35669,58.46027,135.21265l230.3728,250.57129c22.3822,24.34473,60.48999,25.27808,84.03729,2.05859l252.9032-249.38281c38.04602-33.99316,62.00415-83.42505,62.00415-138.45972Z" fill="#ef5259"/>
      <g>
        <path d="M495.2773,266.94815c-36.29472,27.55529-73.70139,31.70872-83.55013,9.27696-9.84874-22.43176,11.58996-62.95428,47.88468-90.50957,36.29472-27.55529,73.70139-31.70872,83.55013-9.27696,9.84874,22.43176-11.58996,62.95428-47.88468,90.50957Z" fill="#88162b"/>
        <path d="M192.50045,262.95669c36.29472,27.55529,73.70139,31.70872,83.55013,9.27696,9.84874-22.43176-11.58996-62.95428-47.88468-90.50957-36.29472-27.55529-73.70139-31.70872-83.55013-9.27696-9.84874,22.43176,11.58996,62.95428,47.88468,90.50957Z" fill="#88162b"/>
      </g>
    </g>
  </g>
</svg>