<?xml version="1.0" encoding="UTF-8"?>
<svg id="Layer_2" xmlns="http://www.w3.org/2000/svg" width="700.41504" height="700.41504" viewBox="0 0 700.41504 700.41504">
  <g id="Mace">
    <g>
      <rect x="133.51172" y="133.51183" width="433.39106" height="433.39106" rx="46.42903" ry="46.42903" fill="#7a50e0"/>
      <rect x="133.51172" y="133.51183" width="433.39106" height="433.39106" rx="46.42903" ry="46.42903" transform="translate(-145.06067 350.20728) rotate(-45)" fill="#ed4296"/>
      <path d="M383.0376,76.58398c-11.1377-11.1377-26.52429-15.42188-40.94116-12.87671-1.08081,4.44116-1.66699,9.07593-1.66699,13.84985v558.82349c14.88818,3.19312,31.03992-.98169,42.60815-12.5498l240.79321-240.79321c18.13159-18.13159,18.13159-47.52881,0-65.66064l-240.79321-240.79297Z" fill="#a579ff"/>
      <rect x="164.32838" y="164.32848" width="371.75775" height="371.75775" rx="39.82628" ry="39.82628" transform="translate(845.47517 350.20743) rotate(135)" fill="#c283ff"/>
      <rect x="256.25648" y="256.25659" width="187.90153" height="187.90153" rx="20.12983" ry="20.12983" transform="translate(-145.06067 350.20728) rotate(-45)" fill="#7a50e0"/>
      <g>
        <path d="M538.46777,324.50781l-64.35547-64.35547c-2.12329,2.5647-4.30371,5.09985-6.50562,7.63599l63.78979,63.78979c10.17798,10.17896,10.26538,26.67896.27246,36.97217,2.44604,2.26465,4.87305,4.54736,7.28271,6.84717,13.67529-14.20752,13.52051-36.88525-.48389-50.88965Z" fill="#ed4296"/>
        <path d="M375.90723,161.94727c-6.86523-6.86523-15.99121-10.64551-25.7002-10.64551-9.70801,0-18.83496,3.78027-25.69922,10.64551l-162.56055,162.56055c-6.86523,6.86426-10.64551,15.99121-10.64551,25.69922,0,9.70898,3.78027,18.83496,10.64551,25.69922l77.5448,77.54565c2.44666-2.26392,4.87219-4.5542,7.30103-6.84058l-77.77551-77.77637c-4.97559-4.97461-7.71582-11.59082-7.71582-18.62793s2.74023-13.65234,7.71582-18.62891l162.56055-162.56055c4.97656-4.97559,11.5918-7.71582,18.62891-7.71582s13.65332,2.74023,18.62891,7.71582l12.64722,12.64722c2.46008-2.25366,4.95068-4.47705,7.47302-6.6687l-13.04895-13.04883Z" fill="#ed4296"/>
        <path d="M407.43848,492.79492l-38.60254,38.60254c-10.27051,10.27051-26.9834,10.27246-37.25781,0l-18.86621-18.86646c-2.56396,2.13599-5.00024,4.42651-7.3894,6.7522l19.1853,19.18555c7.08496,7.08496,16.39258,10.62695,25.69922,10.62695,9.30762,0,18.61426-3.54199,25.69922-10.62793l38.31396-38.31396c-2.39526-2.35718-4.7019-4.77466-6.78174-7.35889Z" fill="#ed4296"/>
      </g>
    </g>
  </g>
</svg>